<?xml version="1.0" standalone="no"?>
<!DOCTYPE svg PUBLIC "-//W3C//DTD SVG 20010904//EN"
 "http://www.w3.org/TR/2001/REC-SVG-20010904/DTD/svg10.dtd">
<svg version="1.0" xmlns="http://www.w3.org/2000/svg"
 width="320.000000pt" height="319.000000pt" viewBox="0 0 320.000000 319.000000"
 preserveAspectRatio="xMidYMid meet">

<g transform="translate(0.000000,319.000000) scale(0.100000,-0.100000)"
fill="#000000" stroke="none">
<path d="M1395 3179 c-181 -25 -385 -90 -544 -175 -430 -228 -721 -621 -823
-1109 -32 -156 -32 -451 0 -602 141 -653 612 -1125 1262 -1264 90 -20 135 -23
310 -23 231 0 326 15 520 81 545 185 949 655 1056 1228 26 139 26 421 0 560
-52 281 -181 548 -368 765 -228 263 -541 446 -893 520 -116 24 -404 35 -520
19z m-121 -924 c31 -14 80 -33 109 -44 29 -10 88 -39 132 -65 44 -26 104 -54
133 -62 29 -9 68 -28 85 -43 18 -16 42 -33 54 -40 15 -7 27 -28 34 -57 7 -25
23 -59 36 -75 14 -16 23 -34 21 -40 -2 -6 -22 15 -45 47 -46 65 -85 109 -123
139 -14 11 -7 -1 16 -25 45 -49 144 -182 165 -222 8 -14 73 -88 145 -165 224
-237 254 -273 310 -378 76 -144 93 -182 100 -224 l7 -44 -32 23 c-21 17 -27
26 -19 31 15 9 3 47 -50 158 -23 46 -44 77 -60 84 -13 6 -34 32 -47 58 -40 79
-132 182 -412 465 -285 288 -375 361 -536 433 -99 45 -96 38 8 -17 181 -95
236 -140 518 -426 148 -149 293 -301 323 -337 80 -98 149 -239 116 -239 -4 0
-15 12 -24 28 -9 15 -64 74 -123 132 -59 58 -146 152 -194 210 -98 117 -224
237 -406 386 -66 54 -142 120 -169 148 l-48 51 43 -54 c24 -30 78 -82 119
-115 129 -105 303 -261 360 -322 71 -77 291 -348 309 -382 8 -15 27 -59 41
-98 15 -39 49 -108 76 -154 41 -69 59 -90 107 -120 55 -35 57 -37 39 -53 -28
-26 -56 -21 -122 20 -41 26 -60 44 -60 58 0 11 -5 27 -10 35 -8 11 -9 7 -4
-14 6 -26 5 -28 -17 -21 -13 4 -25 8 -25 9 -1 0 -18 42 -39 91 -52 127 -57
136 -50 102 5 -24 2 -27 -21 -27 -16 0 -24 -5 -21 -12 2 -7 11 -12 19 -10 9 1
18 -5 22 -13 5 -13 1 -15 -16 -9 -20 6 -21 5 -9 -10 12 -14 11 -16 -3 -16 -9
0 -16 7 -16 16 0 8 -5 12 -10 9 -11 -7 -74 54 -65 63 3 3 16 -5 30 -18 42 -39
30 0 -15 47 -34 38 -40 41 -49 26 -12 -22 -19 -15 -36 33 -16 47 -27 52 -57
22 -13 -13 -28 -22 -35 -20 -7 2 -10 -10 -6 -36 5 -40 -9 -64 -28 -45 -17 17
-19 74 -3 80 20 7 17 15 -11 36 -24 18 -25 17 -22 -4 3 -34 -20 -34 -37 0 -17
31 -21 61 -9 61 3 0 15 -8 25 -17 18 -16 19 -16 24 4 5 19 9 20 30 11 16 -7
28 -8 34 -2 6 6 3 10 -8 10 -9 0 -27 4 -39 8 -17 5 -23 3 -23 -8 0 -18 -15
-21 -25 -6 -12 20 -35 10 -35 -16 0 -14 -5 -35 -11 -46 -11 -20 -12 -20 -35 8
-18 23 -23 25 -24 12 0 -25 -12 -22 -44 7 -30 28 -46 34 -26 10 21 -25 2 -30
-23 -7 -13 12 -29 22 -36 22 -36 0 -71 32 -85 78 -16 53 -67 164 -86 187 -17
20 7 20 34 0 11 -8 34 -15 52 -15 32 0 88 35 79 50 -3 4 11 20 30 34 19 15 45
41 59 59 24 32 24 33 10 101 -15 71 -35 120 -56 132 -6 4 -4 -3 5 -16 9 -13
24 -57 33 -97 20 -93 12 -117 -62 -174 -66 -51 -115 -59 -200 -34 -76 22 -126
48 -194 100 -30 24 -73 52 -95 63 -48 25 -160 136 -151 150 11 19 45 0 103
-57 86 -84 166 -104 205 -51 19 26 70 157 84 215 8 32 -49 111 -96 135 -23 12
-45 20 -50 18 -5 -2 4 -21 20 -43 16 -22 41 -62 56 -90 15 -27 29 -44 31 -37
5 14 -38 92 -61 112 -19 15 -21 30 -3 30 19 0 61 -48 82 -94 17 -38 17 -40 -1
-55 -11 -9 -20 -29 -22 -44 -1 -15 -8 -39 -15 -53 l-13 -25 -25 38 c-48 74
-99 80 -167 19 l-37 -34 -28 20 c-58 42 -106 -7 -53 -55 29 -27 31 -35 14 -72
-14 -30 -46 -33 -79 -6 l-24 19 24 48 c12 27 25 73 28 102 5 49 10 56 50 87
24 19 47 35 51 37 21 9 90 102 95 127 4 16 19 41 34 55 25 24 36 26 109 26 65
0 93 -5 138 -25z m-273 -533 c154 -101 179 -121 211 -167 44 -62 57 -105 65
-220 6 -88 5 -91 -22 -123 -20 -24 -35 -32 -58 -32 -32 0 -149 23 -177 34 -9
4 -38 54 -64 113 -52 113 -52 113 -21 223 17 63 20 162 5 191 -15 27 -3 23 61
-19z m420 -152 c-25 -22 -86 -27 -97 -9 -4 8 3 9 22 5 17 -3 39 0 54 8 37 21
48 18 21 -4z m-75 -197 c24 -52 43 -78 71 -97 21 -14 42 -26 46 -26 5 0 20 -9
34 -20 14 -11 38 -20 54 -20 18 0 32 -7 39 -20 6 -11 20 -20 33 -19 21 0 21 1
2 9 -24 9 -50 38 -42 46 3 3 10 -4 17 -15 6 -12 19 -21 30 -21 10 0 22 -9 25
-20 5 -15 15 -20 41 -20 22 0 34 -5 34 -14 0 -7 7 -19 15 -26 13 -11 20 -9 38
8 21 20 25 20 45 6 32 -22 27 -38 -5 -17 l-28 17 19 -22 c11 -12 29 -22 41
-22 13 0 28 -7 35 -15 7 -8 17 -12 22 -9 5 3 19 -2 30 -13 12 -10 -1 10 -27
45 -27 34 -53 62 -58 62 -5 0 -4 -7 3 -15 17 -20 5 -32 -15 -15 -17 14 -20 56
-5 65 6 3 10 1 10 -5 0 -5 15 -19 33 -30 35 -22 52 -26 42 -10 -3 6 -1 10 5
10 6 0 8 -10 5 -22 -8 -36 16 -71 65 -94 l44 -21 22 24 21 23 22 -56 c26 -69
26 -75 0 -108 l-21 -27 -61 35 c-34 19 -81 39 -105 45 -23 7 -40 16 -37 21 4
6 -12 9 -37 9 l-43 -2 35 -7 c34 -7 34 -7 -12 -9 -26 0 -63 -8 -81 -17 -34
-16 -35 -16 -118 28 -46 25 -144 76 -216 112 -145 73 -160 90 -128 140 14 22
16 39 10 102 -4 42 -11 89 -15 105 -6 21 -5 27 2 23 8 -5 9 -1 5 12 -15 43 26
-22 59 -93z m934 -253 c7 -16 16 -28 20 -25 4 2 26 -22 49 -53 23 -32 56 -66
75 -76 27 -14 35 -26 40 -58 11 -69 -13 -80 -38 -17 -16 41 -106 179 -106 163
0 -5 21 -40 45 -78 67 -103 61 -120 -19 -58 -51 38 -79 77 -37 51 34 -22 49 2
23 38 -27 38 -86 156 -74 149 5 -3 15 -19 22 -36z m-379 -42 c11 -21 11 -22
-4 -9 -10 7 -17 17 -17 22 0 15 9 10 21 -13z m349 -230 c62 -35 107 -42 138
-22 28 19 43 10 20 -12 -23 -23 -104 -10 -184 30 -35 18 -64 31 -64 30 0 -2
16 -15 35 -30 21 -16 65 -34 107 -43 65 -15 71 -18 74 -44 1 -16 -2 -27 -9
-27 -7 0 -25 -7 -42 -16 -27 -14 -31 -13 -55 6 -14 11 -43 29 -65 41 -102 54
-125 89 -84 130 20 20 20 20 52 1 18 -10 52 -30 77 -44z m190 -44 c0 -8 -4
-12 -10 -9 -5 3 -10 10 -10 16 0 5 5 9 10 9 6 0 10 -7 10 -16z m-20 -28 c0 -8
-6 -19 -14 -25 -11 -9 -15 -6 -18 13 -3 14 0 27 6 29 15 6 26 -2 26 -17z"/>
<path d="M1150 2173 c18 -24 35 -43 37 -43 9 0 -18 37 -43 60 -24 22 -23 20 6
-17z"/>
<path d="M1014 2144 c-18 -14 -18 -15 4 -4 12 6 22 13 22 15 0 8 -5 6 -26 -11z"/>
<path d="M959 2099 l-24 -20 28 17 c15 9 27 18 27 20 0 8 -8 4 -31 -17z"/>
<path d="M1253 1963 c-84 -42 -82 -205 3 -285 58 -54 130 -71 185 -43 40 21
49 50 49 153 0 100 -14 131 -77 169 -45 27 -112 30 -160 6z"/>
<path d="M1612 1644 c9 -10 32 -28 50 -38 39 -22 29 -11 -27 29 -23 17 -33 21
-23 9z"/>
<path d="M1409 1429 c36 -49 160 -149 185 -149 5 0 -24 23 -65 52 -41 29 -83
63 -94 77 -46 58 -64 72 -26 20z"/>
<path d="M1366 1450 c12 -24 105 -150 110 -150 3 0 -12 24 -33 53 -51 71 -86
115 -77 97z"/>
<path d="M1927 1327 c95 -145 98 -150 62 -82 -37 69 -104 171 -119 180 -6 4
20 -40 57 -98z"/>
<path d="M1595 1310 c3 -5 16 -15 28 -21 22 -12 22 -12 3 10 -19 21 -43 30
-31 11z"/>
<path d="M2110 1167 c0 -13 53 -117 62 -123 5 -3 -5 23 -23 58 -32 65 -39 76
-39 65z"/>
<path d="M2080 1146 c0 -2 7 -9 15 -16 13 -11 14 -10 9 4 -5 14 -24 23 -24 12z"/>
<path d="M2110 1091 c0 -6 4 -13 10 -16 6 -3 7 1 4 9 -7 18 -14 21 -14 7z"/>
<path d="M2197 995 c9 -19 18 -33 21 -31 4 5 -26 66 -33 66 -3 0 3 -16 12 -35z"/>
<path d="M2170 1000 c6 -11 13 -20 16 -20 2 0 0 9 -6 20 -6 11 -13 20 -16 20
-2 0 0 -9 6 -20z"/>
<path d="M2222 930 c0 -14 2 -19 5 -12 2 6 2 18 0 25 -3 6 -5 1 -5 -13z"/>
<path d="M984 1354 c31 -63 68 -96 141 -123 88 -33 88 -24 0 13 -68 28 -84 40
-110 78 -16 25 -36 54 -43 64 -7 10 -1 -4 12 -32z"/>
<path d="M1312 1375 c0 -11 4 -33 8 -50 7 -27 8 -27 8 -5 0 14 -4 36 -8 50 -6
20 -8 21 -8 5z"/>
<path d="M1323 1245 c0 -27 2 -38 4 -22 2 15 2 37 0 50 -2 12 -4 0 -4 -28z"/>
<path d="M1355 1181 c21 -35 210 -141 250 -141 11 1 -5 10 -35 20 -30 11 -92
45 -138 76 -46 31 -81 51 -77 45z"/>
<path d="M1698 1033 c28 -2 76 -2 105 0 28 2 5 3 -53 3 -58 0 -81 -1 -52 -3z"/>
<path d="M1875 1020 c27 -12 43 -12 25 0 -8 5 -22 9 -30 9 -10 0 -8 -3 5 -9z"/>
<path d="M1680 1004 c32 -7 211 -10 194 -3 -11 4 -62 7 -114 7 -52 0 -88 -2
-80 -4z"/>
<path d="M1950 990 c19 -11 42 -19 50 -19 8 0 -1 8 -20 19 -19 11 -42 19 -50
19 -8 0 1 -8 20 -19z"/>
<path d="M1901 985 c10 -9 153 -64 157 -60 3 2 -8 9 -24 16 -136 52 -142 54
-133 44z"/>
<path d="M2030 966 c0 -2 9 -6 20 -9 11 -3 18 -1 14 4 -5 9 -34 13 -34 5z"/>
<path d="M2300 1081 c0 -6 4 -13 10 -16 6 -3 7 1 4 9 -7 18 -14 21 -14 7z"/>
<path d="M2341 768 c0 -9 -9 -22 -18 -27 -10 -6 -13 -10 -8 -11 21 0 37 18 32
36 -4 16 -5 16 -6 2z"/>
<path d="M2250 756 c0 -2 8 -10 18 -17 15 -13 16 -12 3 4 -13 16 -21 21 -21
13z"/>
</g>
</svg>
